<svg width="24" height="24" viewBox="0 0 24 24" fill="none" xmlns="http://www.w3.org/2000/svg">
<path fill-rule="evenodd" clip-rule="evenodd" d="M16.917 6.90508C16.917 8.63558 16.487 10.8926 15.8255 10.5501C15.555 11.4334 14.9871 12.1959 14.2183 12.7081C13.4494 13.2203 12.527 13.4506 11.6076 13.3599C10.6882 13.2692 9.82857 12.8631 9.17461 12.2106C8.52065 11.558 8.1127 10.6993 8.02002 9.78008C7.36352 8.63158 6.50252 6.33008 8.71602 4.53608C8.75602 4.52308 8.78002 4.41508 8.81602 4.25608C8.95302 3.65458 9.25652 2.31758 11.171 2.57308C12.6475 2.76958 16.917 3.53158 16.917 6.90508ZM15.014 7.99658C15.014 7.99658 14.788 8.65758 15 9.39408C14.9973 10.1794 14.6867 10.9323 14.135 11.4911C13.5833 12.05 12.8345 12.3703 12.0493 12.3832C11.2641 12.3961 10.5052 12.1006 9.93542 11.5601C9.36568 11.0197 9.03056 10.2774 9.00202 9.49258C9.07452 9.21758 9.07452 8.75208 9.07402 8.23458C9.07352 7.30108 9.07252 6.19958 9.50002 5.75058C12.4945 7.74508 15.014 7.99658 15.014 7.99658Z" fill="#F2F4F7"/>
<path d="M6.5 17.9999C6.5 17.4589 6.7865 16.9849 7.2165 16.7209C7.20016 16.6586 7.18483 16.5961 7.1705 16.5334C7.09492 16.1917 7.03569 15.8467 6.993 15.4994C6.95036 15.1665 6.92449 14.8318 6.9155 14.4964C4.805 15.3249 3 16.7689 3 18.2849V20.9999H21V18.2849C21 16.8329 19.345 15.4474 17.351 14.6049V14.6189C17.36 14.9239 17.343 15.2739 17.31 15.6104C17.28 15.9224 17.2355 16.2334 17.182 16.4999H17.5C17.5928 16.4999 17.6838 16.5258 17.7628 16.5746C17.8417 16.6235 17.9055 16.6933 17.947 16.7764L18.447 17.7764C18.482 17.8459 18.5 17.9224 18.5 17.9999V18.9999C18.5 19.1325 18.4473 19.2596 18.3536 19.3534C18.2598 19.4472 18.1326 19.4999 18 19.4999H17V18.4999H17.5V18.1179L17.191 17.4999H15.809L15.5 18.1179V18.4999H16V19.4999H15C14.8674 19.4999 14.7402 19.4472 14.6464 19.3534C14.5527 19.2596 14.5 19.1325 14.5 18.9999V17.9999C14.5 17.9224 14.518 17.8459 14.553 17.7764L15.053 16.7764C15.0945 16.6933 15.1583 16.6235 15.2372 16.5746C15.3162 16.5258 15.4072 16.4999 15.5 16.4999H16.1575C16.1685 16.4569 16.1795 16.4092 16.1905 16.3569C16.2405 16.1214 16.285 15.8229 16.315 15.5144C16.345 15.2054 16.359 14.8989 16.3515 14.6469C16.3499 14.5424 16.3417 14.4382 16.327 14.3349C16.316 14.2639 16.305 14.2314 16.303 14.2244C16.3023 14.2227 16.3023 14.2224 16.303 14.2234L16.3045 14.2229C16.0392 14.1406 15.7708 14.0683 15.5 14.0064C15.2485 13.9489 14.9885 14.2949 14.875 14.5114H9L8.957 14.4274C8.851 14.2164 8.7205 13.9559 8.5 14.0064C8.30733 14.05 8.11483 14.0995 7.9225 14.1549C7.91653 14.2426 7.91386 14.3305 7.9145 14.4184C7.9165 14.6949 7.943 15.0334 7.9855 15.3754C8.028 15.7164 8.0855 16.0484 8.1455 16.3104C8.16283 16.386 8.1795 16.4534 8.1955 16.5124C8.48136 16.5499 8.75033 16.6691 8.97021 16.8556C9.1901 17.0421 9.35158 17.288 9.43533 17.5639C9.51907 17.8397 9.52154 18.1339 9.44242 18.4112C9.36331 18.6884 9.20597 18.937 8.98924 19.1271C8.77251 19.3173 8.50557 19.4409 8.22039 19.4833C7.9352 19.5256 7.64385 19.4849 7.38121 19.366C7.11857 19.247 6.89577 19.0549 6.73949 18.8126C6.5832 18.5704 6.50006 18.2882 6.5 17.9999Z" fill="#F2F4F7"/>
<path d="M8.5 18.0002C8.5 18.2872 8.269 18.5077 8 18.5077C7.731 18.5077 7.5 18.2877 7.5 18.0002C7.5 17.7132 7.731 17.4927 8 17.4927C8.269 17.4927 8.5 17.7127 8.5 18.0002Z" fill="#F2F4F7"/>
</svg>
